<svg xmlns="http://www.w3.org/2000/svg" xmlns:xlink="http://www.w3.org/1999/xlink" preserveAspectRatio="xMidYMid" width="26" height="16" viewBox="0 0 26 16">
  <defs>
    <style>
      .cls-1 {
        fill: #00acec;
        fill-rule: evenodd;
      }
    </style>
  </defs>
  <path d="M25.382,1.824 L24.131,0.602 C23.697,0.200 23.191,-0.001 22.612,-0.001 C22.023,-0.001 21.522,0.200 21.110,0.602 L13.000,8.522 L4.890,0.602 C4.478,0.201 3.978,-0.000 3.388,-0.000 C2.809,-0.000 2.303,0.201 1.869,0.602 L0.634,1.825 C0.211,2.237 0.000,2.731 0.000,3.307 C0.000,3.894 0.212,4.383 0.634,4.774 L11.498,15.382 C11.899,15.794 12.399,16.001 13.000,16.001 C13.590,16.001 14.096,15.794 14.518,15.382 L25.382,4.774 C25.794,4.372 26.000,3.883 26.000,3.307 C26.000,2.742 25.794,2.248 25.382,1.824 Z" class="cls-1"/>
</svg>
