<svg xmlns="http://www.w3.org/2000/svg" xmlns:xlink="http://www.w3.org/1999/xlink" preserveAspectRatio="xMidYMid" width="8" height="15" viewBox="0 0 8 15">
  <defs>
    <style>
      .cls-1 {
        fill: #c4004b;
        fill-rule: evenodd;
      }
    </style>
  </defs>
  <path d="M7.284,6.668 L0.716,6.668 C0.450,6.668 0.205,6.510 0.082,6.258 C-0.042,6.007 -0.024,5.703 0.128,5.469 L3.496,0.293 C3.616,0.109 3.813,-0.001 4.024,-0.000 C4.234,0.001 4.431,0.112 4.550,0.297 L7.875,5.473 C8.025,5.707 8.041,6.010 7.917,6.261 C7.793,6.511 7.549,6.668 7.284,6.668 ZM0.716,8.333 L7.284,8.333 C7.549,8.333 7.793,8.489 7.917,8.740 C8.041,8.990 8.025,9.293 7.875,9.527 L4.550,14.703 C4.431,14.888 4.234,14.999 4.024,15.000 C3.813,15.001 3.616,14.891 3.496,14.707 L0.128,9.530 C-0.024,9.297 -0.042,8.993 0.082,8.742 C0.205,8.490 0.450,8.333 0.716,8.333 Z" class="cls-1"/>
</svg>
