<svg xmlns="http://www.w3.org/2000/svg" xmlns:xlink="http://www.w3.org/1999/xlink" preserveAspectRatio="xMidYMid" width="1920" height="475" viewBox="0 0 1920 475">
  <defs>
    <style>
      .cls-1 {
        fill: #d87216;
        fill-rule: evenodd;
      }
    </style>
  </defs>
  <path d="M2086.669,266.569 L2066.000,475.011 C2066.000,475.011 2004.687,446.716 1879.000,448.897 C1753.312,451.078 1612.465,459.989 1485.000,435.725 C1357.534,411.461 1348.786,446.184 1209.000,452.190 C1069.213,458.195 1081.148,466.844 881.000,448.897 C680.851,430.949 743.983,413.415 588.000,435.725 C432.016,458.035 475.560,474.222 350.000,455.482 C224.440,436.743 289.843,409.188 153.000,434.627 C16.156,460.067 -31.028,451.288 -79.000,449.994 L-79.000,212.816 L-73.757,212.816 L-53.000,-0.011 C-53.000,-0.011 8.312,28.268 134.000,26.088 C259.687,23.908 400.534,15.002 528.000,39.252 C655.465,63.502 664.213,28.799 804.000,22.797 C943.786,16.795 931.851,8.151 1132.000,26.088 C1332.148,44.025 1269.016,61.549 1425.000,39.252 C1580.983,16.955 1537.440,0.778 1663.000,19.506 C1788.560,38.234 1723.156,65.774 1860.000,40.349 C1996.843,14.924 2044.028,23.698 2092.000,24.991 L2092.000,266.569 L2086.669,266.569 Z" class="cls-1"/>
</svg>
